<svg xmlns="http://www.w3.org/2000/svg" xmlns:xlink="http://www.w3.org/1999/xlink" viewBox="0,0,256,256" width="96px" height="96px" fill-rule="nonzero"><g fill="none" fill-rule="nonzero" stroke="none" stroke-width="1" stroke-linecap="butt" stroke-linejoin="miter" stroke-miterlimit="10" stroke-dasharray="" stroke-dashoffset="0" font-family="none" font-weight="none" font-size="none" text-anchor="none" style="mix-blend-mode: normal"><g transform="scale(0.5,0.5)"><path d="M379.9,141.1c-1.4,-7.6 -3.5,-19.5 -10.2,-24.4c-8.6,-6.4 -21.2,-4.9 -31.2,-3.2c-11.5,1.9 -22.9,4.4 -34.5,6c-29.1,4 -58.2,4.1 -87.5,4.5c-26.3,0.3 -53.1,0.9 -78.7,7.5c1.3,13.6 6.7,26.4 5.6,40.3c-0.1,1.1 -0.5,2 -1,2.6c1.8,5.8 3.9,10 10.7,11.8c10.4,2.7 21,3.7 31.7,3.6c22.8,-0.2 46,-2.2 68.7,-5.2c24.3,-3.3 48.5,-7.9 72.9,-10.8c8,-1 16.1,0.2 24.1,0c6.6,-0.1 16.1,0.1 21.3,-4.8c0.3,-0.3 0.6,-0.5 0.9,-0.7c0.2,-0.3 0.3,-0.5 0.6,-0.8c0.9,-1 2.1,-1.6 3.4,-1.7c1.1,-0.1 2.2,0.2 3.1,0.8c0.1,-0.3 0.2,-0.7 0.3,-1.1c2.7,-7.2 1.1,-17.1 -0.2,-24.4z" fill="#c2f30a"></path><path d="M316.9,292.5c-3.1,-2.6 -8.5,-1.9 -12.2,-1.6c-3.8,0.3 -8.4,0.6 -11.8,2.5c-0.6,0.3 -1.1,0.5 -1.7,0.7c1.3,7 2.9,13.8 5.1,20.5c0.1,0.4 0.2,0.8 0.3,1.2c7,0.3 15.1,1.3 21.7,-1.3c0.2,-3.8 0.6,-7.5 0.7,-11.3c0,-2.9 0.5,-8.5 -2.1,-10.7zM176.7,369.3c-3,-9.6 -13.7,-17.3 -23.4,-12.6c-1,7.8 -1.3,15.7 1.9,23c1.1,0 2.2,0.4 3.3,1.3c7.2,6.7 21.2,-2.3 18.2,-11.7zM323.8,359.5c-0.3,-3.1 -0.4,-6.9 -2,-9.6c-3.9,-6.8 -13.8,-2.8 -19.5,-0.8c-0.3,0.1 -0.7,0.2 -1,0.3c0.8,3.7 1.3,7.4 1.9,11.1c0.4,2.1 1.1,7.9 2.2,8.6c1.3,0.9 1.9,2 1.9,3.2c0.7,-0.9 1.9,-1.4 3.4,-1.4c4.5,0 9,0 13.4,-0.6c0.1,-3.7 0,-7.3 -0.3,-10.8zM263.2,409.7c-5.8,-6.8 -18.4,-4.2 -24.4,0.7c-0.2,0.2 -0.5,0.4 -0.7,0.5c1.5,4.6 2.5,9.4 4.1,13.9c1.7,-1.3 4,-1.6 6.1,0.2c2.9,2.5 11.3,-2.4 13.5,-4.2c3.3,-2.7 4.3,-7.7 1.4,-11.1zM319.8,227.7c-9.1,-1.9 -18.4,-1.1 -27.7,-0.9c-0.2,1.8 -1.4,3.5 -3,4.2c0,0.1 0,0.1 0,0.2c0,-0.1 0,-0.1 0,-0.2v0c-0.1,1.1 -0.4,2.1 -1,2.9c0.6,2.9 1.1,5.8 1.6,8.7c0.3,1.8 0.6,3.7 1,5.5c0.2,0.7 0.3,1.4 0.5,2.1c0.1,0.2 0.1,0.3 0.1,0.4v0c0.2,0.3 0.4,0.6 0.5,0.9c1,-0.3 2.3,-0.2 3.5,0.4c4.5,2.4 10.6,1.5 15.5,0.8c4,-0.5 7.9,-1.3 11.8,-2c0.2,-7.7 0.2,-16.3 -2.8,-23zM248.9,353.8c-5.7,0.1 -11.3,0.6 -16.8,2.6c-0.1,8.1 -1.4,17.2 3.7,24.1c0.3,0.5 0.6,0.9 0.7,1.4c0.6,-0.3 1.4,-0.6 2.2,-0.6c5.2,-0.2 9.9,-1.8 14.4,-3.9c-1,-7.9 -2.1,-15.8 -4.2,-23.6zM242.3,241.8c-0.4,-3.7 -1.2,-6.7 -5.2,-7.3c-9,-1.3 -18.2,-0.2 -27.3,-0.2c0.7,3.5 1.2,7.1 1.8,10.6c0.3,2 0.6,4.1 1.1,6.1c0.2,0.8 0.4,1.7 0.7,2.5c0,0.1 0.1,0.2 0.1,0.3c0.2,0.2 0.5,0.4 0.7,0.6c9.5,-0.1 19,-1 28.5,-1.4c-0.1,-3.8 0,-7.5 -0.4,-11.2zM241.8,294.8c-4.6,-7.4 -16.1,-1.8 -23.4,0.3c-0.2,0.7 -0.5,1.4 -1.1,2c-1.7,2.1 0.3,8 1,10.3c0.9,3.3 2,6.5 2.9,9.8c0.3,0 0.6,0.1 0.9,0.2c8,2.4 16.3,1.6 24,-1.4c-0.1,-7.1 -0.6,-15.4 -4.3,-21.2zM175.9,317.4c-0.1,-0.8 -0.3,-1.5 -0.6,-2.3c-0.5,-1.5 -1,-3 -1.7,-4.5c-2.1,-4.7 -2.5,-14.7 -9.2,-15.8c-6,-1 -12.1,3.7 -16.6,7.2c0,1.5 -0.1,2.9 -0.1,4.4c0,1.9 0,3.8 0.3,5.7c0,0.2 0.1,0.5 0.1,0.7c1.3,0.5 2.1,1.6 2.4,2.9c0.6,0.2 1.2,0.6 1.8,1.2c0.6,0.6 1.1,1.2 1.6,1.8c4.9,0.1 9.8,0.3 14.7,0c2.1,-0.2 5.2,-0.1 7.3,-1c0.1,0.1 0.1,-0.1 0,-0.3z" fill="#c2f30a"></path><path d="M397.9,372.1c-0.9,-7.7 -8.6,-13 -15.2,-16c-4.9,-2.3 -15.2,-6.1 -17.3,1.6c-0.6,2.2 -2.2,3.4 -4,3.7c1,10.2 3.7,20.1 4,30.4c0.2,5.2 0.1,10.4 0.1,15.6c0.6,0 1.1,0.1 1.7,0.3c4.4,1.6 10,1.2 14.5,0.5c3.7,-0.5 11.4,-1.4 13.5,-5.1c5.2,-8.8 3.9,-21.2 2.7,-31z" fill="#c2f30a"></path><path d="M325.2,399.7c-4,-1.9 -10.3,2.4 -14.1,3.7c-0.8,0.3 -1.5,0.4 -2.2,0.3c0.6,6.6 0.6,14.5 4.7,19.2c0.7,0.8 1.1,1.6 1.1,2.4c3.6,0.3 8,0.7 10.9,-0.6c-0.4,0.2 0.2,-0.4 0.4,-1.4c0.4,-1.9 0.8,-3.9 0.9,-5.8c0.3,-4 3.1,-15.5 -1.7,-17.8z" fill="#c2f30a"></path><path d="M424.8,307c-1.4,-10.8 -3.5,-21.6 -3.8,-32.5c-0.3,-7.8 -0.1,-15.6 0.2,-23.4c0.7,-18 2.1,-35.9 2.7,-53.9c0.6,-18.2 0.6,-36.6 -2.1,-54.6c-2.3,-15.4 -6.6,-31.3 -16.4,-43.8c-10.8,-13.8 -26.6,-20 -43.6,-22.1c-29.3,-3.6 -58.8,2.5 -87.6,7.4c-14.4,2.5 -28.9,4.9 -43.5,5.9c-15.2,1 -30.5,0.4 -45.7,0.5c-15.2,0.1 -30.5,0.5 -45.5,3.1c-7.8,1.3 -15.3,4 -23,5.6c-6.2,1.3 -12.2,2.9 -18,5.6c-0.9,39.4 1.5,78.7 4.8,117.9c1.3,16.2 3.1,32.4 3.5,48.7c0.4,16.1 -0.1,32.2 -0.8,48.3c-0.7,16.1 -1.5,32.1 -1.6,48.2c-0.1,13.3 -0.5,27.1 3.1,40c5.2,18.3 17.1,32.4 34.8,39.7c23.7,9.8 51,8.7 76,8.3c32.3,-0.4 64.6,-2.8 97,-2.5c22.8,0.2 47.3,1.5 68.9,-7.3c52.7,-21.3 46.6,-93.2 40.6,-139.1zM138.2,295.7c0,-4.5 5,-6.2 7.9,-4.6c6.2,-4.3 14.1,-8.1 21.2,-5.8c4.3,1.4 7.9,3.9 10.3,7.8c2.7,4.6 3.5,9.5 5.5,14.3c1.9,4.5 4,10.1 2.3,14.9c-1.3,3.7 -5.9,5 -9.4,5.7c-8.2,1.7 -16.7,0.8 -25,0.8c-2.6,0 -5.2,-1.6 -5.4,-4.4c-0.4,-0.5 -0.7,-0.9 -0.9,-1.4c-9.4,-0.4 -6.6,-21.8 -6.5,-27.3zM135.2,238.9c0.3,-1.9 1.4,-3.1 2.8,-3.6c1,-1.3 2.6,-2.1 4.6,-1.8c9.6,1.1 19.1,-1.4 28.7,-1.6c3,0 4.8,1.8 5.4,4.6c1.4,7.1 2.5,14.2 4.2,21.2c0.7,2.7 -0.3,5.3 -3.1,6.4c-10.1,3.9 -21.8,6.2 -32.6,4.7c-1.4,-0.2 -2.3,-0.8 -3,-1.6c-2.1,-0.3 -3.9,-1.7 -4,-4.4c-0.3,-8.3 -4.2,-15.6 -3,-23.9zM145.9,383.5c-4.9,-10.7 -3.3,-22.9 -1.7,-34.1c0.6,-4.3 5.2,-4.8 7.9,-2.8c6.7,-2.1 14.1,-1.5 20.3,2.3c7,4.4 15.1,13 14.8,22.1c-0.6,16.6 -21.4,30.3 -35.3,17.6c-0.7,-0.6 -1.1,-1.3 -1.4,-2.1c-1.8,-0.1 -3.6,-1 -4.6,-3zM196,434.3c0,2.5 -1.1,4.1 -3.3,5.1c-9.4,4.5 -19.5,4.8 -29.8,4.8c-2.3,0 -3.9,-1.3 -4.7,-3c-1.6,-0.2 -2.9,-1.2 -3.4,-3.3c-1.9,-8.5 -6,-16.5 -6.3,-25.3c-0.1,-2.7 1.6,-4.4 3.6,-5c0.4,-1.3 1.3,-2.4 2.8,-3.1c8.8,-4.2 24.9,-8.6 33.9,-2.8c9.7,6.4 7.2,22.7 7.2,32.6zM173.8,199.4c-9.6,-0.6 -22,-1.2 -30.5,-6.5c-6.6,-4.1 -9,-10.3 -11,-17.5c-0.6,-2.1 0.1,-3.8 1.3,-5c0,-0.2 0,-0.4 0,-0.6c1.1,-14.3 -5.8,-27.9 -6.1,-42.2c-0.1,-3.4 2.7,-5.2 5.3,-5.2c4,-1.1 8,-2 12,-2.8c28.5,-5.7 57.7,-5.5 86.6,-5.8c30.2,-0.3 60.5,-1.2 90.3,-7.2c18.3,-3.7 48.1,-11.4 59.8,8.8c5,8.7 7.6,18.8 8.9,28.7c1.1,8.4 1.7,17.8 -1.5,25.9c-1.3,3.4 -4.8,3.4 -7.1,1.8c-0.1,0.6 -0.2,1 -0.5,1.8c-0.2,0.5 -0.7,1.1 -1,1.5c-0.1,0.1 -0.1,0.2 -0.2,0.2c-0.2,0.6 -0.5,1.2 -1,1.7c-0.9,1 -2.1,1.6 -3.4,1.7c-0.3,0 -0.5,0 -0.8,0c-13.4,8.3 -31.2,2.9 -46.1,4.7c-26.9,3.3 -53.6,8.5 -80.6,11.8c-13.1,1.6 -26.1,2.4 -39.2,3.4c-11.6,0.9 -23.4,1.5 -35.2,0.8zM202.6,251.1c-1,-5.2 -1.5,-10.5 -2.7,-15.6c-0.8,-3.4 1.7,-6 4.4,-6.5c0,-2.3 1.4,-4.6 4.5,-4.6c10.9,-0.1 23.4,-2.3 33.9,1.3c12.6,4.3 9,21.8 10.4,31.8c0.4,2.6 -2,5.4 -4.6,5.4c-11.5,0.1 -23,1.4 -34.5,1.5c-1.6,0 -2.8,-0.6 -3.7,-1.5c-0.2,0 -0.4,0 -0.6,-0.1c-5.2,-1.1 -6.2,-7.4 -7.1,-11.7zM216.9,324.2c-2.1,0.3 -4.2,-0.6 -4.9,-3.3c-2.3,-8.9 -8.9,-22.2 -2,-30.5c0.1,-0.1 0.2,-0.2 0.3,-0.3c-0.1,-1.9 0.9,-3.6 3.3,-4.1c11,-2.4 25.9,-10.1 34.9,0.7c7,8.3 7.7,21.8 7.8,32.2c0,2.5 -1.2,4.1 -3.3,5.1c-10,4.7 -21.9,6.4 -32.6,3.2c-1.9,-0.5 -3,-1.6 -3.5,-3zM222.2,356.7c0,-2.4 1.4,-4 3.2,-4.7c-0.1,-2 0.8,-4 3.2,-4.9c7.7,-2.9 15.6,-3.3 23.8,-3.3c2.2,0 4.4,1.1 5.1,3.3c3.4,10.6 4.7,21.8 6.3,32.8c0.3,2.4 -1.4,4.1 -3.3,5.1c-6.7,3.3 -13.2,6 -20.8,6.3c-2.9,0.1 -4.6,-1.9 -5.1,-4c-2.1,1.4 -5.1,1.4 -6.9,-1.1c-6.6,-8.8 -5.6,-19.3 -5.5,-29.5zM264.6,430.9c-6.2,3.3 -15.1,6.6 -21.6,2.5c-2.2,2.2 -6.9,2.2 -8.7,-1.5c-3.4,-7.2 -4.1,-15.3 -7.5,-22.5c-1.9,-4 2,-6.8 5.5,-6.3c0.3,-0.4 0.6,-0.7 1,-1c10.8,-8.9 36.4,-9.9 40.8,6.9c2.3,9 -1.3,17.5 -9.5,21.9zM277.9,234c-0.5,-2 0.2,-3.8 1.4,-5c0.3,-1.8 0.8,-3.4 2,-4.9c0.7,-0.8 1.5,-1.5 2.5,-2c-0.3,-2.6 1.1,-5.3 4.4,-5.3c8.1,0 16.1,-0.6 24.2,-0.2c5.7,0.3 13.3,0.2 16,6c4.6,9.7 4.2,21.4 4.2,31.8c0,2.9 -1.8,4.9 -4.6,5.4c-11.4,2 -26.2,6.8 -37.1,1c-1.3,-0.7 -2.1,-1.8 -2.4,-2.9c-1.9,0.5 -4,0.2 -5.5,-1.8c-2,-2.6 -2.3,-6.6 -2.8,-9.7c-0.8,-4.1 -1.3,-8.3 -2.3,-12.4zM286.9,318c-2.9,-8.8 -4.7,-17.7 -6.3,-26.8c-0.6,-3.7 2.6,-5.5 5.5,-5.1c0.3,-0.3 0.7,-0.7 1.2,-0.9c5.2,-3.1 11.9,-4 17.9,-4.3c5.7,-0.3 11.8,-0.4 16.7,2.9c10.5,7.2 6.3,23.1 6.1,33.6c0,1.7 -0.6,3.6 -2.2,4.5c-9.6,5.2 -20.4,3.9 -30.9,3.8c-3.1,0 -4.9,-2.4 -5.2,-4.8c-1.1,-0.3 -2.2,-1.2 -2.8,-2.9zM293.9,364.6c-0.9,-4.7 -1.4,-9.5 -2.5,-14.1c-0.8,-3.4 1.7,-6 4.3,-6.5c0.1,-1.8 1,-3.5 3.2,-4.3c9.5,-3.4 23.6,-6.9 30.3,3.4c5.8,8.8 4.8,20.9 4.8,31c0,2.1 -1.1,4.6 -3.3,5.1c-6.4,1.4 -12.7,1.8 -19.3,1.8c-3.4,0 -5.3,-2.8 -5.2,-5.5c-1.6,2 -4.7,3.2 -7.5,1.3c-3.3,-2.6 -4.1,-8.5 -4.8,-12.2zM337.1,415.7c-0.4,5.6 -0.4,13.4 -5.5,17.1c-5.1,3.7 -12.9,2.4 -18.7,2.4c-3.3,0 -5.1,-2.6 -5.2,-5.1c-0.8,-0.3 -1.6,-0.8 -2.3,-1.6c-6.2,-7.1 -5.2,-19.2 -6.8,-27.9c-0.8,-4.3 3.6,-6 6.8,-4.7c0.5,-0.8 1.3,-1.5 2.5,-1.9c7.3,-2.5 15.4,-7.4 22.8,-2.6c8.6,5.6 7,15.4 6.4,24.3zM350.5,255.5c-0.9,-11.6 -2.4,-23.2 -2.5,-34.9c0,-3.4 2.8,-5.2 5.5,-5.2c4.7,-5.2 13.1,-7.3 19.7,-8c6.8,-0.7 15.2,-0.6 19.8,5.3c5,6.5 5.6,15.7 6.1,23.6c0.4,5.7 0.7,11.4 1.4,17.1c1.5,13.2 3.8,26.6 3.2,40c-0.5,9.7 -2.7,25.4 -15.7,24.8c-0.8,0 -1.6,-0.2 -2.2,-0.6c-0.6,0.3 -1.4,0.6 -2.3,0.6c-7.4,0.1 -14.8,1.3 -21.4,-3c-8.1,-5.3 -10.5,-15.6 -11,-24.6c-0.8,-11.7 0.3,-23.4 -0.6,-35.1zM408.5,390.3c-0.4,6.7 -1.4,14.9 -6.1,20c-4.8,5.2 -13.1,7.1 -19.9,7.9c-6.6,0.8 -13.4,0.7 -19.8,-1.6c-1.2,-0.4 -2,-1.1 -2.4,-1.9c-2.5,0.1 -4.9,-1.3 -4.9,-4.4v-2.2c0,-0.1 0,-0.2 0,-0.2c0,-5.1 0.1,-10.2 -0.1,-15.3c-0.6,-12.4 -4.2,-24.4 -4.4,-36.9c0,-4 3.9,-5.8 6.8,-5c5.2,-8.2 16,-8.6 25.5,-5.1c9.4,3.5 22.6,11.8 24.2,22.8c1.1,7.2 1.5,14.5 1.1,21.9z" fill="#c2f30a"></path><path d="M186.1,421.6c-0.1,-2.3 0.1,-10.1 -2.5,-11.4c-6.8,-3.3 -18.4,0.4 -25,3.5c0.7,7 3.9,13.6 5.5,20.5c7.5,0 14.9,-0.3 21.9,-2.9c0.2,-3.2 0.3,-6.5 0.1,-9.7zM167.6,242c-7.6,0.5 -15.1,1.8 -22.7,1.5c0.1,5.2 2.2,10.3 3,15.5c7.4,0.9 15.3,-0.6 22.5,-2.9c-1.1,-4.7 -1.9,-9.4 -2.8,-14.1z" fill="#c2f30a"></path><path d="M393.6,289.4c-0.2,-11.1 -1.7,-22.1 -3,-33.1c-1.3,-10.6 -0.2,-22.4 -3.4,-32.7c-0.7,-2.2 -1.4,-5.1 -3.9,-5.9c-2.5,-0.9 -5.7,-0.7 -8.3,-0.4c-5.2,0.5 -12.2,1.6 -15.3,6.3c-0.5,0.7 -1,1.2 -1.6,1.5c0.3,8.7 1.3,17.4 2,26.1c0.8,9.5 0.7,18.9 0.6,28.5c-0.1,7.8 -1.1,21.1 5.8,26.6c4.6,3.6 10.7,2.1 16,2.1c0.8,0 1.6,0.1 2.2,0.4c0.6,-0.3 1.4,-0.5 2.3,-0.4c2.9,0.1 4.1,-1 5,-4.5c1.4,-4.8 1.7,-9.7 1.6,-14.5z" fill="#c2f30a"></path><path d="M431.7,284.5c-2.2,-15.5 -0.8,-31.8 0,-47.4c1,-18.4 2.2,-36.7 2.3,-55.1c0.2,-32.4 -2.2,-70.3 -25.9,-95c-13,-13.5 -31.3,-18.7 -49.5,-20.5c-29.2,-2.8 -58.4,3.2 -87,8.1c-14.4,2.5 -28.9,4.7 -43.5,5.7c-15.2,1 -30.6,0.3 -45.8,0.4c-15.2,0.1 -30.5,0.8 -45.5,3.4c-7.8,1.3 -15.2,4.1 -22.9,5.6c-6.6,1.3 -13,3 -19.1,5.9c-0.8,0.4 -1.4,0.9 -1.9,1.5c-2.3,0.4 -4.4,2.2 -4.4,5.1c-0.9,32.2 0.5,64.3 2.8,96.4c2.3,32.3 6,64.5 5.5,96.9c-0.6,31.9 -4.3,64.2 -2.1,96.1c1.4,20 8.5,39.5 23.6,53c14.7,13.2 35,18.4 54.3,20.2c31.6,3 63.7,0.9 95.3,-0.3c16.1,-0.6 32.1,-1.1 48.2,-1c12.7,0.1 25.4,0.4 38.1,-0.6c20.9,-1.7 41.3,-7.5 56.9,-22.1c19.1,-17.8 25.3,-45.8 27,-70.8c1.8,-28.7 -2.4,-57.3 -6.4,-85.5zM384.1,446.2c-21.6,8.8 -46.1,7.4 -68.9,7.3c-32.3,-0.2 -64.6,2.1 -97,2.5c-25.1,0.3 -52.4,1.5 -76,-8.3c-17.7,-7.3 -29.6,-21.4 -34.8,-39.7c-3.7,-13 -3.2,-26.7 -3.1,-40c0.1,-16.1 1,-32.1 1.6,-48.2c0.7,-16.1 1.1,-32.2 0.8,-48.3c-0.4,-16.3 -2.2,-32.5 -3.5,-48.7c-3.2,-39.2 -5.6,-78.5 -4.8,-117.9c5.7,-2.7 11.8,-4.4 18,-5.6c7.7,-1.6 15.2,-4.3 23,-5.6c15,-2.5 30.3,-3 45.5,-3.1c15.2,-0.1 30.5,0.6 45.7,-0.5c14.6,-1 29.1,-3.5 43.5,-5.9c28.8,-4.9 58.3,-11 87.6,-7.4c17,2.1 32.8,8.3 43.6,22.1c9.7,12.5 14.1,28.4 16.4,43.8c2.7,18 2.7,36.4 2.1,54.6c-0.6,18 -2,35.9 -2.7,53.9c-0.3,7.8 -0.4,15.6 -0.2,23.4c0.4,10.9 2.4,21.7 3.8,32.5c6.1,45.8 12.2,117.7 -40.6,139.1z" fill="#f94149"></path><path d="M390.4,144.1c-1.3,-9.9 -3.8,-20 -8.9,-28.7c-11.7,-20.2 -41.6,-12.5 -59.8,-8.8c-29.7,6 -60.1,6.9 -90.3,7.2c-28.9,0.3 -58.1,0.1 -86.6,5.8c-4,0.8 -8,1.8 -12,2.8c-2.6,0 -5.4,1.8 -5.3,5.2c0.3,14.3 7.2,27.8 6.1,42.2c0,0.2 0,0.4 0,0.6c-1.2,1.2 -1.9,2.9 -1.3,5c2.1,7.2 4.5,13.4 11,17.5c8.4,5.3 20.9,5.9 30.5,6.5c11.8,0.7 23.6,0.1 35.4,-0.8c13.1,-1 26.2,-1.7 39.2,-3.4c26.9,-3.3 53.6,-8.5 80.6,-11.8c15,-1.8 32.7,3.6 46.1,-4.7c0.3,0 0.5,0 0.8,0c1.3,-0.1 2.5,-0.7 3.4,-1.7c0.5,-0.5 0.8,-1.1 1,-1.7c0.1,-0.1 0.2,-0.2 0.2,-0.2c0.3,-0.4 0.7,-1 1,-1.5c0.3,-0.8 0.4,-1.3 0.5,-1.8c2.3,1.7 5.7,1.6 7.1,-1.8c3.1,-8.1 2.4,-17.5 1.3,-25.9zM380,165.5c-0.1,0.4 -0.2,0.7 -0.3,1.1c-0.9,-0.6 -2,-0.9 -3.1,-0.8c-1.3,0.1 -2.5,0.7 -3.4,1.7c-0.2,0.3 -0.4,0.5 -0.6,0.8c-0.3,0.2 -0.6,0.4 -0.9,0.7c-5.2,4.9 -14.7,4.7 -21.3,4.8c-8,0.2 -16.1,-1 -24.1,0c-24.4,2.9 -48.5,7.5 -72.9,10.8c-22.6,3.1 -45.8,5 -68.7,5.2c-10.7,0.1 -21.3,-0.9 -31.7,-3.6c-6.8,-1.8 -8.9,-6 -10.7,-11.8c0.6,-0.6 0.9,-1.5 1,-2.6c1.1,-13.9 -4.3,-26.7 -5.6,-40.3c25.6,-6.7 52.4,-7.2 78.7,-7.5c29.3,-0.4 58.4,-0.4 87.5,-4.5c11.6,-1.6 23,-4.1 34.5,-6c9.9,-1.6 22.5,-3.2 31.2,3.2c6.6,5 8.8,16.9 10.2,24.4c1.4,7.3 3,17.2 0.2,24.4zM180.9,257.7c-1.7,-7 -2.8,-14.2 -4.2,-21.2c-0.6,-2.8 -2.4,-4.7 -5.4,-4.6c-9.6,0.2 -19.1,2.7 -28.7,1.6c-2,-0.2 -3.6,0.6 -4.6,1.8c-1.4,0.5 -2.5,1.7 -2.8,3.6c-1.2,8.3 2.6,15.7 2.9,23.8c0.1,2.7 2,4.2 4,4.4c0.6,0.8 1.6,1.4 3,1.6c10.8,1.5 22.5,-0.8 32.6,-4.7c2.8,-1 3.8,-3.6 3.2,-6.3zM147.8,259c-0.8,-5.2 -2.9,-10.3 -3,-15.5c7.6,0.3 15.1,-1 22.7,-1.5c0.9,4.7 1.8,9.4 2.8,14.1c-7.2,2.3 -15,3.8 -22.5,2.9zM253.1,257.4c-1.4,-10 2.2,-27.5 -10.4,-31.8c-10.5,-3.6 -23,-1.3 -33.9,-1.3c-3,0 -4.5,2.2 -4.5,4.6c-2.7,0.5 -5.2,3.1 -4.4,6.5c1.2,5.1 1.6,10.4 2.7,15.6c0.9,4.4 1.9,10.6 7.1,11.6c0.2,0 0.4,0.1 0.6,0.1c0.9,0.9 2.1,1.5 3.7,1.5c11.5,-0.1 23,-1.4 34.5,-1.5c2.6,0.1 5,-2.7 4.6,-5.3zM214.2,254.3c-0.2,-0.2 -0.4,-0.4 -0.7,-0.6c0,-0.1 -0.1,-0.2 -0.1,-0.3c-0.3,-0.8 -0.5,-1.6 -0.7,-2.5c-0.5,-2 -0.8,-4 -1.1,-6.1c-0.6,-3.5 -1.1,-7.1 -1.8,-10.6c9.1,-0.1 18.3,-1.1 27.3,0.2c4,0.6 4.7,3.6 5.2,7.3c0.4,3.7 0.3,7.5 0.4,11.2c-9.5,0.4 -19,1.3 -28.5,1.4zM328.4,222.7c-2.7,-5.8 -10.3,-5.7 -16,-6c-8.1,-0.4 -16.1,0.1 -24.2,0.2c-3.3,0 -4.7,2.7 -4.4,5.3c-1,0.5 -1.9,1.2 -2.5,2c-1.2,1.5 -1.7,3.1 -2,4.9c-1.2,1.2 -1.9,2.9 -1.4,5c1,4.1 1.5,8.3 2.3,12.4c0.5,3.1 0.9,7.1 2.8,9.7c1.5,2 3.6,2.3 5.5,1.8c0.3,1.1 1.1,2.2 2.4,2.9c10.9,5.8 25.7,1 37.1,-1c2.8,-0.5 4.6,-2.4 4.6,-5.4c0,-10.5 0.4,-22.2 -4.2,-31.8zM322.7,250.7c-3.9,0.7 -7.9,1.5 -11.8,2c-4.9,0.7 -11,1.6 -15.5,-0.8c-1.3,-0.7 -2.5,-0.8 -3.5,-0.4c-0.1,-0.3 -0.3,-0.6 -0.5,-0.9v0c0,-0.1 -0.1,-0.2 -0.1,-0.4c-0.2,-0.7 -0.4,-1.4 -0.5,-2.1c-0.4,-1.8 -0.7,-3.6 -1,-5.5c-0.5,-2.9 -1,-5.8 -1.6,-8.7c0.6,-0.8 0.9,-1.8 1,-2.9v0c0,0.1 0,0.1 0,0.2c0,-0.1 0,-0.1 0,-0.2c1.7,-0.7 2.8,-2.4 3,-4.2c9.2,-0.2 18.6,-1 27.7,0.9c2.9,6.7 2.9,15.3 2.8,23zM183.1,307.3c-2,-4.8 -2.8,-9.7 -5.5,-14.3c-2.4,-3.9 -6,-6.4 -10.3,-7.8c-7.1,-2.3 -15,1.6 -21.2,5.8c-2.9,-1.6 -7.9,0.1 -7.9,4.6c0,5.5 -2.9,26.9 6.6,27.2c0.2,0.5 0.5,1 0.9,1.4c0.2,2.8 2.8,4.4 5.4,4.4c8.3,0.1 16.8,0.9 25,-0.8c3.5,-0.7 8.1,-2 9.4,-5.7c1.6,-4.7 -0.4,-10.2 -2.4,-14.8zM168.8,318.9c-4.9,0.4 -9.8,0.1 -14.7,0c-0.5,-0.6 -1,-1.2 -1.6,-1.8c-0.6,-0.6 -1.2,-1 -1.8,-1.2c-0.3,-1.3 -1.1,-2.4 -2.4,-2.9c0,-0.2 -0.1,-0.5 -0.1,-0.7c-0.2,-1.9 -0.3,-3.8 -0.3,-5.7c0,-1.5 0,-3 0.1,-4.4c4.5,-3.5 10.6,-8.2 16.6,-7.2c6.6,1.1 7,11.1 9.2,15.8c0.7,1.5 1.2,3 1.7,4.5c0.2,0.8 0.4,1.5 0.6,2.3c0,0.2 0.1,0.3 0.1,0.4c-2.2,0.8 -5.3,0.7 -7.4,0.9zM248.4,286.8c-9,-10.7 -23.9,-3.1 -34.9,-0.7c-2.4,0.5 -3.4,2.3 -3.3,4.1c-0.1,0.1 -0.2,0.2 -0.3,0.3c-6.9,8.3 -0.3,21.6 2,30.5c0.7,2.7 2.8,3.6 4.9,3.3c0.5,1.3 1.6,2.5 3.3,3c10.7,3.2 22.7,1.5 32.6,-3.2c2.2,-1 3.3,-2.6 3.3,-5.1c0.1,-10.5 -0.6,-23.9 -7.6,-32.2zM222.1,317.4c-0.3,-0.1 -0.6,-0.1 -0.9,-0.2c-0.9,-3.3 -2,-6.5 -2.9,-9.8c-0.6,-2.2 -2.7,-8.2 -1,-10.3c0.5,-0.7 0.9,-1.3 1.1,-2c7.2,-2.1 18.7,-7.8 23.4,-0.3c3.6,5.8 4.2,14.1 4.3,21.3c-7.7,2.9 -16,3.8 -24,1.3zM322,283.8c-4.9,-3.3 -11.1,-3.2 -16.7,-2.9c-6,0.3 -12.7,1.2 -17.9,4.3c-0.5,0.3 -0.9,0.6 -1.2,0.9c-3,-0.4 -6.1,1.3 -5.5,5.1c1.5,9.1 3.4,18 6.3,26.8c0.5,1.7 1.7,2.6 2.9,3c0.3,2.4 2.1,4.8 5.2,4.8c10.5,0.1 21.3,1.4 30.9,-3.8c1.6,-0.9 2.2,-2.8 2.2,-4.5c0,-10.6 4.3,-26.5 -6.2,-33.7zM319,303.3c-0.1,3.8 -0.5,7.5 -0.7,11.3c-6.5,2.5 -14.7,1.6 -21.7,1.3c0,-0.4 -0.1,-0.8 -0.3,-1.2c-2.2,-6.8 -3.8,-13.6 -5.1,-20.5c0.5,-0.1 1.1,-0.3 1.7,-0.7c3.3,-2 8,-2.2 11.8,-2.5c3.7,-0.3 9.2,-1.1 12.2,1.6c2.6,2.1 2.1,7.7 2.1,10.7zM172.4,348.8c-6.2,-3.9 -13.6,-4.5 -20.3,-2.3c-2.7,-2 -7.3,-1.4 -7.9,2.8c-1.6,11.2 -3.2,23.4 1.7,34.1c0.9,2 2.7,3 4.5,3c0.3,0.7 0.7,1.4 1.4,2.1c13.8,12.7 34.6,-1 35.3,-17.6c0.4,-9 -7.7,-17.7 -14.7,-22.1zM158.5,381.1c-1,-1 -2.2,-1.3 -3.3,-1.3c-3.2,-7.3 -2.8,-15.2 -1.9,-23c9.7,-4.7 20.4,3 23.4,12.6c3,9.3 -11,18.3 -18.2,11.7zM263.6,379.9c-1.6,-11 -2.9,-22.2 -6.3,-32.8c-0.7,-2.2 -2.9,-3.3 -5.1,-3.3c-8.2,0 -16,0.3 -23.8,3.3c-2.4,0.9 -3.3,2.9 -3.2,4.9c-1.7,0.7 -3.1,2.4 -3.2,4.7c-0.1,10.2 -1,20.7 5.3,29.4c1.9,2.6 4.9,2.5 6.9,1.1c0.5,2.2 2.2,4.1 5.1,4c7.5,-0.2 14.1,-2.9 20.8,-6.3c2.1,-0.8 3.9,-2.6 3.5,-5zM238.8,381.3c-0.9,0 -1.6,0.2 -2.2,0.6c-0.2,-0.5 -0.4,-0.9 -0.7,-1.4c-5.1,-6.9 -3.8,-16 -3.7,-24.1c5.5,-2 11.1,-2.5 16.8,-2.6c2.1,7.7 3.2,15.7 4.3,23.6c-4.7,2.1 -9.3,3.8 -14.5,3.9zM329.3,343c-6.7,-10.3 -20.9,-6.8 -30.3,-3.4c-2.2,0.8 -3.2,2.5 -3.2,4.3c-2.7,0.6 -5.2,3.1 -4.3,6.5c1.1,4.6 1.6,9.4 2.5,14.1c0.7,3.8 1.5,9.6 4.9,12c2.7,1.9 5.9,0.8 7.5,-1.3c0,2.7 1.8,5.5 5.2,5.5c6.5,0 12.9,-0.3 19.3,-1.8c2.3,-0.5 3.3,-3 3.3,-5.1c-0.1,-9.9 0.9,-22 -4.9,-30.8zM310.8,370.8c-1.5,0 -2.6,0.6 -3.4,1.4c-0.1,-1.1 -0.6,-2.3 -1.9,-3.2c-1.1,-0.7 -1.8,-6.6 -2.2,-8.6c-0.7,-3.7 -1.2,-7.4 -1.9,-11.1c0.3,-0.1 0.6,-0.1 1,-0.3c5.7,-2.1 15.6,-6.1 19.5,0.8c1.6,2.7 1.7,6.6 2,9.6c0.3,3.6 0.4,7.2 0.4,10.7c-4.6,0.7 -9.1,0.7 -13.5,0.7zM400.4,253.4c-0.6,-5.7 -1,-11.4 -1.4,-17.1c-0.5,-7.9 -1,-17.1 -6.1,-23.6c-4.6,-5.9 -13,-6 -19.8,-5.3c-6.5,0.7 -15,2.8 -19.7,8c-2.6,0 -5.5,1.8 -5.5,5.2c0.1,11.7 1.6,23.3 2.5,34.9c0.9,11.7 -0.2,23.3 0.5,35c0.5,9.1 2.9,19.3 11,24.6c6.5,4.3 14,3.1 21.4,3c0.9,0 1.7,-0.2 2.3,-0.6c0.6,0.3 1.4,0.5 2.2,0.6c13,0.6 15.2,-15.1 15.7,-24.8c0.7,-13.3 -1.6,-26.6 -3.1,-39.9zM392.1,303.8c-0.9,3.4 -2.2,4.6 -5,4.5c-0.9,0 -1.7,0.1 -2.3,0.4c-0.6,-0.3 -1.4,-0.4 -2.2,-0.4c-5.4,0.1 -11.5,1.5 -16,-2.1c-6.9,-5.5 -5.9,-18.8 -5.8,-26.6c0.1,-9.5 0.2,-19 -0.6,-28.5c-0.7,-8.7 -1.7,-17.4 -2,-26.1c0.6,-0.3 1.1,-0.8 1.6,-1.5c3.1,-4.6 10.1,-5.7 15.3,-6.3c2.6,-0.3 5.8,-0.4 8.3,0.4c2.4,0.8 3.2,3.7 3.9,5.9c3.2,10.2 2.1,22 3.4,32.7c1.3,11 2.9,22 3,33.1c0,4.9 -0.3,9.8 -1.6,14.5zM407.5,368.3c-1.5,-11 -14.8,-19.3 -24.2,-22.8c-9.5,-3.6 -20.3,-3.2 -25.5,5.1c-2.9,-0.8 -6.8,1 -6.8,5c0.1,12.5 3.8,24.5 4.4,36.9c0.2,5.1 0.2,10.2 0.1,15.3c0,0.1 0,0.2 0,0.2v2.2c0,3.2 2.4,4.6 4.9,4.4c0.4,0.8 1.2,1.5 2.4,1.9c6.3,2.3 13.1,2.3 19.8,1.6c6.7,-0.8 15.1,-2.7 19.9,-7.9c4.7,-5.2 5.7,-13.4 6.1,-20c0.3,-7.3 -0.1,-14.6 -1.1,-21.9zM395.3,403.2c-2.1,3.7 -9.9,4.5 -13.5,5.1c-4.6,0.6 -10.1,1.1 -14.5,-0.5c-0.6,-0.2 -1.2,-0.3 -1.7,-0.3c0,-5.2 0.1,-10.4 -0.1,-15.6c-0.3,-10.2 -3,-20.2 -4,-30.4c1.8,-0.3 3.4,-1.5 4,-3.7c2,-7.7 12.4,-3.9 17.3,-1.6c6.6,3.1 14.3,8.3 15.2,16c1.1,9.7 2.4,22.1 -2.7,31zM274,409c-4.5,-16.8 -30.1,-15.8 -40.8,-6.9c-0.4,0.3 -0.7,0.7 -1,1c-3.5,-0.5 -7.4,2.3 -5.5,6.3c3.4,7.2 4.1,15.3 7.5,22.5c1.8,3.8 6.5,3.7 8.7,1.5c6.5,4.1 15.4,0.8 21.6,-2.5c8.3,-4.4 11.9,-12.9 9.5,-21.9zM261.8,420.8c-2.3,1.8 -10.6,6.6 -13.5,4.2c-2.1,-1.7 -4.4,-1.4 -6.1,-0.2c-1.6,-4.6 -2.6,-9.3 -4.1,-13.9c0.2,-0.1 0.5,-0.3 0.7,-0.5c5.9,-4.9 18.6,-7.5 24.4,-0.7c2.9,3.4 1.9,8.4 -1.4,11.1zM330.6,391.4c-7.4,-4.8 -15.5,0.1 -22.8,2.6c-1.2,0.4 -2,1.1 -2.5,1.9c-3.2,-1.3 -7.6,0.4 -6.8,4.7c1.6,8.8 0.6,20.8 6.8,27.9c0.7,0.8 1.5,1.3 2.3,1.6c0.1,2.5 1.9,5.1 5.2,5.1c5.8,0 13.6,1.3 18.7,-2.4c5.1,-3.7 5.1,-11.5 5.5,-17.1c0.7,-8.9 2.3,-18.7 -6.4,-24.3zM327,417.6c-0.1,1.9 -0.5,3.9 -0.9,5.8c-0.2,1 -0.9,1.6 -0.4,1.4c-2.9,1.3 -7.3,0.8 -10.9,0.6c-0.1,-0.8 -0.4,-1.6 -1.1,-2.4c-4.1,-4.7 -4.1,-12.6 -4.7,-19.2c0.7,0.1 1.4,0 2.2,-0.3c3.7,-1.3 10.1,-5.6 14.1,-3.7c4.7,2.2 1.9,13.7 1.7,17.8zM188.7,401.7c-8.9,-5.8 -25,-1.4 -33.9,2.8c-1.5,0.7 -2.4,1.9 -2.8,3.1c-2,0.6 -3.7,2.3 -3.6,5c0.3,8.8 4.4,16.8 6.3,25.3c0.5,2.1 1.8,3.1 3.4,3.3c0.8,1.7 2.4,3 4.7,3c10.2,0 20.3,-0.3 29.8,-4.8c2.2,-1 3.3,-2.6 3.3,-5.1c0.1,-9.9 2.6,-26.2 -7.2,-32.6zM186.1,431.3c-7.1,2.6 -14.4,2.8 -21.9,2.9c-1.6,-6.9 -4.8,-13.5 -5.5,-20.5c6.6,-3.1 18.2,-6.8 25,-3.5c2.6,1.3 2.4,9 2.5,11.4c0.1,3.2 0,6.5 -0.1,9.7z" fill="#f94149"></path></g></g></svg>